<?xml version="1.0" encoding="utf-8"?>
<!-- Generator: Adobe Illustrator 24.1.3, SVG Export Plug-In . SVG Version: 6.00 Build 0)  -->
<svg version="1.1" id="Layer_1" xmlns="http://www.w3.org/2000/svg" xmlns:xlink="http://www.w3.org/1999/xlink" x="0px" y="0px"
	 viewBox="0 0 98.7 42.7" style="enable-background:new 0 0 98.7 42.7;" xml:space="preserve">
<style type="text/css">
	.st0{fill:#0E9AD7;}
</style>
<g>
	<g>
		<path d="M31.8,6c0-3.4,2.1-6,5.5-6c2.8,0,4.5,1.7,4.7,3.9h-2.3C39.5,2.7,38.7,2,37.3,2c-2.1,0-3.1,1.8-3.1,4.1c0,2.3,1.2,4,3.2,4
			c1.4,0,2.3-0.8,2.5-2h2.3c-0.1,1-0.5,2-1.3,2.7C40,11.5,38.9,12,37.3,12C34.1,12,31.8,9.5,31.8,6z"/>
		<path d="M42.8,7.6c0-2.5,1.8-4.4,4.3-4.4c2.6,0,4.3,1.9,4.3,4.4c0,2.5-1.8,4.4-4.3,4.4C44.6,12,42.8,10.1,42.8,7.6z M49.2,7.6
			c0-1.6-0.8-2.7-2.1-2.7c-1.4,0-2.1,1.1-2.1,2.7s0.7,2.7,2.1,2.7C48.5,10.3,49.2,9.2,49.2,7.6z"/>
		<path d="M52.6,0.2h2.2v11.5h-2.2V0.2z"/>
		<path d="M61.5,11.7v-1h0c-0.6,0.8-1.2,1.2-2.4,1.2c-1.8,0-2.9-1.2-2.9-3V3.5h2.2v5.1c0,1,0.4,1.5,1.4,1.5c1,0,1.7-0.8,1.7-1.9V3.5
			h2.2v8.3H61.5z"/>
		<path d="M65.1,3.5h2.1v1.1h0c0.5-0.8,1.3-1.3,2.4-1.3c1,0,1.9,0.6,2.3,1.4h0c0.6-0.9,1.4-1.4,2.5-1.4c1.7,0,2.7,1.1,2.7,2.9v5.5
			h-2.2V6.5c0-0.9-0.5-1.4-1.3-1.4c-0.9,0-1.5,0.7-1.5,1.8v4.8H70V6.5c0-0.9-0.5-1.4-1.3-1.4c-0.9,0-1.5,0.7-1.5,1.8v4.8h-2.2V3.5z"
			/>
		<path d="M80.7,10.7L80.7,10.7l0,1h-2.1V0.2h2.2v4.2h0c0.5-0.7,1.2-1.2,2.3-1.2c2.1,0,3.6,1.8,3.6,4.4c0,2.7-1.4,4.4-3.5,4.4
			C82,12,81.2,11.5,80.7,10.7z M84.4,7.6c0-1.5-0.6-2.6-1.8-2.6c-1.4,0-1.9,1.1-1.9,2.6c0,1.5,0.8,2.5,2,2.5
			C83.8,10.1,84.4,9.2,84.4,7.6z"/>
		<path d="M87.7,0.2h2.2v2h-2.2V0.2z M87.7,3.5h2.2v8.3h-2.2V3.5z"/>
		<path d="M96.3,10.8L96.3,10.8c-0.5,0.6-1,1.1-2.5,1.1c-1.7,0-2.9-0.9-2.9-2.5c0-1.8,1.5-2.4,3.3-2.7c1.4-0.2,2-0.3,2-0.9
			c0-0.6-0.5-1-1.4-1c-1,0-1.5,0.4-1.6,1.2h-1.9c0.1-1.4,1.1-2.7,3.6-2.7c2.5,0,3.5,1.1,3.5,3v4.2c0,0.6,0.1,1,0.3,1.1v0.1h-2.1
			C96.4,11.6,96.4,11.2,96.3,10.8z M96.3,8.8V7.6c-0.4,0.2-1,0.4-1.5,0.5c-1.1,0.3-1.7,0.5-1.7,1.3c0,0.8,0.5,1,1.3,1
			C95.6,10.4,96.3,9.6,96.3,8.8z"/>
		<path d="M32.3,15.6h5.1c1.2,0,2.2,0.3,2.8,0.8c0.6,0.6,0.9,1.3,0.9,2.2c0,1.2-0.7,1.9-1.8,2.3v0c1.3,0.4,2.1,1.4,2.1,2.8
			c0,1.1-0.3,1.8-1,2.4c-0.7,0.6-1.7,0.9-2.9,0.9h-5.3V15.6z M37.1,20.2c1,0,1.7-0.5,1.7-1.4c0-0.9-0.6-1.4-1.7-1.4h-2.6v2.7H37.1z
			 M34.6,25.2h2.7c1.1,0,1.8-0.6,1.8-1.6c0-1.1-0.8-1.7-1.9-1.7h-2.6V25.2z"/>
		<path d="M47.9,27.1v-1h0c-0.6,0.8-1.2,1.2-2.4,1.2c-1.8,0-2.9-1.2-2.9-3v-5.5h2.2V24c0,1,0.4,1.5,1.4,1.5c1,0,1.7-0.8,1.7-1.9
			v-4.8H50v8.2H47.9z"/>
		<path d="M51,24.4h2c0.1,0.9,0.8,1.4,1.8,1.4c1,0,1.5-0.4,1.5-0.9c0-0.8-1-0.9-2.2-1.1c-1.5-0.3-2.9-0.7-2.9-2.5
			c0-1.8,1.5-2.6,3.4-2.6c2.2,0,3.4,1.1,3.5,2.7h-2c-0.1-0.9-0.7-1.2-1.6-1.2c-0.9,0-1.4,0.3-1.4,0.9c0,0.7,1.1,0.8,2.3,1
			c1.4,0.3,2.9,0.7,2.9,2.6c0,1.7-1.4,2.7-3.5,2.7C52.5,27.3,51.1,26.2,51,24.4z"/>
		<path d="M59.4,15.6h2.2v2h-2.2V15.6z M59.4,18.8h2.2v8.2h-2.2V18.8z"/>
		<path d="M65.2,20L65.2,20c0.6-0.9,1.4-1.4,2.5-1.4c1.7,0,2.8,1.3,2.8,3.1v5.4h-2.2V22c0-0.9-0.5-1.5-1.4-1.5c-1,0-1.7,0.8-1.7,1.9
			v4.7H63v-8.2h2.1V20z"/>
		<path d="M71.5,23c0-2.4,1.7-4.3,4.1-4.3c2.7,0,4.1,2,4.1,5h-6c0.2,1.3,0.9,2.1,2.1,2.1c0.9,0,1.4-0.4,1.6-1h2.2
			c-0.3,1.5-1.6,2.7-3.7,2.7C73.1,27.3,71.5,25.4,71.5,23z M73.7,22.1h3.7c-0.1-1-0.8-1.8-1.8-1.8C74.5,20.3,73.9,21,73.7,22.1z"/>
		<path d="M80.2,24.4h2c0.1,0.9,0.8,1.4,1.8,1.4c1,0,1.5-0.4,1.5-0.9c0-0.8-1-0.9-2.2-1.1c-1.5-0.3-2.9-0.7-2.9-2.5
			c0-1.8,1.5-2.6,3.4-2.6c2.2,0,3.4,1.1,3.5,2.7h-2c-0.1-0.9-0.7-1.2-1.6-1.2c-0.9,0-1.4,0.3-1.4,0.9c0,0.7,1.1,0.8,2.3,1
			c1.4,0.3,2.9,0.7,2.9,2.6c0,1.7-1.4,2.7-3.5,2.7C81.7,27.3,80.4,26.2,80.2,24.4z"/>
		<path d="M88.1,24.4h2c0.1,0.9,0.8,1.4,1.8,1.4c1,0,1.5-0.4,1.5-0.9c0-0.8-1-0.9-2.2-1.1c-1.5-0.3-2.9-0.7-2.9-2.5
			c0-1.8,1.5-2.6,3.4-2.6c2.2,0,3.4,1.1,3.5,2.7h-2c-0.1-0.9-0.7-1.2-1.6-1.2c-0.9,0-1.4,0.3-1.4,0.9c0,0.7,1.1,0.8,2.3,1
			c1.4,0.3,2.9,0.7,2.9,2.6c0,1.7-1.4,2.7-3.5,2.7C89.6,27.3,88.2,26.2,88.1,24.4z"/>
		<path d="M31.8,38.9h2.3c0.2,1.4,0.9,1.9,2.6,1.9c1.2,0,2.2-0.4,2.2-1.5c0-1.1-1.1-1.4-2.8-1.8c-2.1-0.5-3.9-1-3.9-3.4
			c0-2.3,1.8-3.4,4.4-3.4c2.6,0,4.3,1.3,4.4,3.6h-2.2c-0.1-1.2-1-1.7-2.2-1.7c-1.3,0-2.1,0.5-2.1,1.4c0,0.9,0.8,1.2,2.5,1.6
			c2.4,0.5,4.3,1.1,4.3,3.6c0,2.3-1.9,3.6-4.5,3.6C33.6,42.7,31.8,41.3,31.8,38.9z"/>
		<path d="M42.1,38.4c0-2.5,1.6-4.4,4.1-4.4c2.1,0,3.5,1.2,3.7,3h-2.1c-0.1-0.7-0.7-1.3-1.5-1.3c-1.3,0-2,1-2,2.6
			c0,1.6,0.6,2.6,2,2.6c0.9,0,1.5-0.5,1.7-1.4H50c-0.1,1.8-1.5,3.2-3.7,3.2C43.7,42.7,42.1,40.8,42.1,38.4z"/>
		<path d="M53.2,35.3L53.2,35.3c0.6-0.9,1.3-1.3,2.4-1.3c1.7,0,2.8,1.3,2.8,3.1v5.4h-2.2v-5.1c0-0.9-0.5-1.5-1.4-1.5
			c-1,0-1.7,0.8-1.7,1.9v4.7H51V31h2.2V35.3z"/>
		<path d="M59.5,38.4c0-2.5,1.8-4.4,4.3-4.4c2.6,0,4.3,1.9,4.3,4.4c0,2.5-1.8,4.4-4.3,4.4C61.3,42.7,59.5,40.8,59.5,38.4z
			 M65.9,38.4c0-1.6-0.8-2.7-2.1-2.7c-1.4,0-2.1,1.1-2.1,2.7s0.7,2.7,2.1,2.7C65.2,41,65.9,40,65.9,38.4z"/>
		<path d="M68.8,38.4c0-2.5,1.8-4.4,4.3-4.4c2.6,0,4.3,1.9,4.3,4.4c0,2.5-1.8,4.4-4.3,4.4C70.6,42.7,68.8,40.8,68.8,38.4z
			 M75.2,38.4c0-1.6-0.8-2.7-2.1-2.7c-1.4,0-2.1,1.1-2.1,2.7s0.7,2.7,2.1,2.7C74.5,41,75.2,40,75.2,38.4z"/>
		<path d="M78.6,31h2.2v11.5h-2.2V31z"/>
	</g>
	<path class="st0" d="M24,14.2l2-2H14v-12l-14,14h12v2H5.9l-2,2H12v2H9.9l-2,2H12v4l2-2v-2h2l2-2h-4v-2h6l2-2h-8v-2H24z M4.8,12.2
		L12,5v7.2H4.8z"/>
</g>
</svg>
